# xmcd
#
# Track frame offsets:
# 150
# 18525
# 33289
# 49539
# 60659
# 72822
# 89499
# 102820
# 119707
# 133763
# 147339
# 161004
# 176637
# 191259
# 208269
# 223633
# 237375
# 252832
# 269185
# 288346
# 303471
# 319990
#
# Disc length: 4457 seconds
#
#
# Revision: 0
# Processed by: cddbd v1.5.2PL0 Copyright (c) Steve Scherf et al.
# Submitted via: FreeRIP 2.945 
#
DISCID=57116716
DTITLE=Cezar and Paulino - Vol 5 - 2LPs DOSE DUPLA - 2 LPs - Dose dupla
DYEAR=1900
DGENRE=Sertanejo
TTITLE0=Cuida de mim Deus
TTITLE1=A volta do boaiadeiro
TTITLE2=Você marcou prá mim
TTITLE3=Pé de bode
TTITLE4=Saco de ouro
TTITLE5=Cabeça zoada
TTITLE6=A filha do francês
TTITLE7=Artista das estradas
TTITLE8=Eu e ela no forró
TTITLE9=A noite do nosso amor
TTITLE10=Vai de roda
TTITLE11=Pout pourri de catira - a) passa morena, b) tiro a quiema bucha, c) o meu bem falou, d) rapaz solteiro
TTITLE12=Tudo por ela
TTITLE13=Olha nós aqui
TTITLE14=Amor bandido
TTITLE15=Nóis só qué virá os zóio
TTITLE16=Morena aí aí
TTITLE17=Amiga minha (Divã de Boêmio)
TTITLE18=Dois amigos, dois irmãos
TTITLE19=Dá-lhe cerveja
TTITLE20=Coração não cansa
TTITLE21=Nóis é do mato, mas nóis conhece
EXTD=Remasterizados em Digital
EXTT0=
EXTT1=
EXTT2=
EXTT3=
EXTT4=
EXTT5=
EXTT6=
EXTT7=
EXTT8=
EXTT9=
EXTT10=
EXTT11=
EXTT12=
EXTT13=
EXTT14=
EXTT15=
EXTT16=
EXTT17=
EXTT18=
EXTT19=
EXTT20=
EXTT21=
PLAYORDER=
